<svg width="20" height="20" viewBox="0 0 20 20" fill="none" xmlns="http://www.w3.org/2000/svg">
<path d="M14.2448 5.95495C14.739 5.77562 14.9843 5.71108 15.1203 5.68799C15.1213 5.73145 15.1203 5.76669 15.118 5.7898C14.9242 7.8264 14.075 12.8369 13.6388 15.1684C13.5368 15.7144 13.4584 15.9743 12.9311 15.6646C12.584 15.4606 12.2699 15.2039 11.9334 14.9833C10.8296 14.2597 9.24951 13.182 9.37926 13.2468C8.29253 12.5307 8.74743 12.0922 9.35409 11.5073C9.45234 11.4127 9.55451 11.3142 9.65476 11.21C9.69951 11.1635 9.91843 10.9599 10.2271 10.673C11.2172 9.75251 13.1304 7.97378 13.1788 7.76794C13.1867 7.73418 13.194 7.6083 13.1192 7.54183C13.0444 7.47536 12.9341 7.49809 12.8544 7.51617C12.7415 7.54179 10.9433 8.73034 7.45987 11.0818C6.94946 11.4323 6.48715 11.6031 6.07293 11.5941L6.07664 11.5959C5.53102 11.4035 4.98693 11.2378 4.43997 11.0713C4.08064 10.9618 3.72008 10.8519 3.35704 10.7339C3.26825 10.7051 3.18162 10.6777 3.1002 10.6521C6.87268 9.00868 9.38534 7.92662 10.6444 7.40293C12.4732 6.64229 13.5579 6.20419 14.2448 5.95495ZM16.2636 4.34798C16.0524 4.17663 15.8203 4.09799 15.6591 4.05947C15.4926 4.01969 15.3343 4.00689 15.2143 4.00901C14.8173 4.016 14.3909 4.12891 13.6763 4.38824C12.9473 4.65278 11.827 5.10595 10.0043 5.86406C8.71934 6.39854 6.16108 7.50055 2.33588 9.16709C1.99989 9.30143 1.69189 9.45384 1.44854 9.63451C1.22383 9.80143 0.909284 10.1 0.851743 10.5591C0.808275 10.9058 0.909359 11.2258 1.11436 11.4778C1.29283 11.6971 1.52147 11.8303 1.69558 11.9147C1.95405 12.0398 2.30181 12.1488 2.60744 12.2447C3.08504 12.3943 3.56154 12.5473 4.04017 12.6938C5.52193 13.1473 6.74173 13.5207 8.08384 14.4051C9.06826 15.0538 10.0337 15.7308 11.0198 16.3772C11.3794 16.6129 11.7156 16.8835 12.0869 17.1016C12.4925 17.3399 13.0082 17.5573 13.6358 17.4994C14.5844 17.4122 15.0779 16.5395 15.2771 15.4748C15.7122 13.1493 16.5753 8.06919 16.7772 5.94771C16.8035 5.67079 16.7727 5.36043 16.747 5.21058C16.7206 5.05626 16.6398 4.65333 16.2636 4.34798Z" fill="black"/>
</svg>
