<svg width="20" height="20" viewBox="0 0 20 20" fill="none" xmlns="http://www.w3.org/2000/svg">
<path d="M15.0252 13.8477L18.5941 17.4166L17.4156 18.5951L13.8467 15.0262C12.5634 16.0528 10.936 16.667 9.16601 16.667C5.02602 16.667 1.66602 13.307 1.66602 9.16699C1.66602 5.02699 5.02602 1.66699 9.16601 1.66699C13.306 1.66699 16.666 5.02699 16.666 9.16699C16.666 10.937 16.0518 12.5644 15.0252 13.8477ZM13.3533 13.2293C14.3723 12.1792 14.9993 10.7467 14.9993 9.16699C14.9993 5.94408 12.3889 3.33366 9.16601 3.33366C5.9431 3.33366 3.33268 5.94408 3.33268 9.16699C3.33268 12.3899 5.9431 15.0003 9.16601 15.0003C10.7457 15.0003 12.1782 14.3732 13.2283 13.3542L13.3533 13.2293Z" fill="black" fill-opacity="0.6"/>
</svg>
